<svg width="150" height="60" viewBox="0 0 150 60" fill="none" xmlns="http://www.w3.org/2000/svg">
<rect width="150" height="60" rx="10" fill="#132742"/>
<path d="M41.5 39C46.7467 39 51 34.7467 51 29.5C51 24.2533 46.7467 20 41.5 20C36.2533 20 32 24.2533 32 29.5C32 34.7467 36.2533 39 41.5 39Z" stroke="white" stroke-width="1.5" stroke-linecap="round" stroke-linejoin="round"/>
<path d="M52 40L50 38" stroke="white" stroke-width="1.5" stroke-linecap="round" stroke-linejoin="round"/>
<path d="M68.944 36.128C68.0907 36.128 67.2747 36 66.496 35.744C65.7173 35.4773 65.104 35.136 64.656 34.72L65.248 33.472C65.6747 33.8453 66.2187 34.1547 66.88 34.4C67.5413 34.6453 68.2293 34.768 68.944 34.768C69.5947 34.768 70.1227 34.6933 70.528 34.544C70.9333 34.3947 71.232 34.192 71.424 33.936C71.616 33.6693 71.712 33.3707 71.712 33.04C71.712 32.656 71.584 32.3467 71.328 32.112C71.0827 31.8773 70.7573 31.6907 70.352 31.552C69.9573 31.4027 69.52 31.2747 69.04 31.168C68.56 31.0613 68.0747 30.9387 67.584 30.8C67.104 30.6507 66.6613 30.464 66.256 30.24C65.8613 30.016 65.5413 29.7173 65.296 29.344C65.0507 28.96 64.928 28.4693 64.928 27.872C64.928 27.296 65.0773 26.768 65.376 26.288C65.6853 25.7973 66.1547 25.408 66.784 25.12C67.424 24.8213 68.2347 24.672 69.216 24.672C69.8667 24.672 70.512 24.7573 71.152 24.928C71.792 25.0987 72.3467 25.344 72.816 25.664L72.288 26.944C71.808 26.624 71.3013 26.3947 70.768 26.256C70.2347 26.1067 69.7173 26.032 69.216 26.032C68.5867 26.032 68.0693 26.112 67.664 26.272C67.2587 26.432 66.96 26.6453 66.768 26.912C66.5867 27.1787 66.496 27.4773 66.496 27.808C66.496 28.2027 66.6187 28.5173 66.864 28.752C67.12 28.9867 67.4453 29.1733 67.84 29.312C68.2453 29.4507 68.688 29.5787 69.168 29.696C69.648 29.8027 70.128 29.9253 70.608 30.064C71.0987 30.2027 71.5413 30.384 71.936 30.608C72.3413 30.832 72.6667 31.1307 72.912 31.504C73.1573 31.8773 73.28 32.3573 73.28 32.944C73.28 33.5093 73.1253 34.0373 72.816 34.528C72.5067 35.008 72.0267 35.3973 71.376 35.696C70.736 35.984 69.9253 36.128 68.944 36.128ZM79.1695 36.096C78.2628 36.096 77.4628 35.9093 76.7695 35.536C76.0868 35.1627 75.5535 34.6507 75.1695 34C74.7962 33.3493 74.6095 32.6027 74.6095 31.76C74.6095 30.9173 74.7908 30.1707 75.1535 29.52C75.5268 28.8693 76.0335 28.3627 76.6735 28C77.3242 27.6267 78.0548 27.44 78.8655 27.44C79.6868 27.44 80.4122 27.6213 81.0415 27.984C81.6708 28.3467 82.1615 28.8587 82.5135 29.52C82.8762 30.1707 83.0575 30.9333 83.0575 31.808C83.0575 31.872 83.0522 31.9467 83.0415 32.032C83.0415 32.1173 83.0362 32.1973 83.0255 32.272H75.8095V31.168H82.2255L81.6015 31.552C81.6122 31.008 81.5002 30.5227 81.2655 30.096C81.0308 29.6693 80.7055 29.3387 80.2895 29.104C79.8842 28.8587 79.4095 28.736 78.8655 28.736C78.3322 28.736 77.8575 28.8587 77.4415 29.104C77.0255 29.3387 76.7002 29.6747 76.4655 30.112C76.2308 30.5387 76.1135 31.0293 76.1135 31.584V31.84C76.1135 32.4053 76.2415 32.912 76.4975 33.36C76.7642 33.7973 77.1322 34.1387 77.6015 34.384C78.0708 34.6293 78.6095 34.752 79.2175 34.752C79.7188 34.752 80.1722 34.6667 80.5775 34.496C80.9935 34.3253 81.3562 34.0693 81.6655 33.728L82.5135 34.72C82.1295 35.168 81.6495 35.5093 81.0735 35.744C80.5082 35.9787 79.8735 36.096 79.1695 36.096ZM90.22 36V34.208L90.14 33.872V30.816C90.14 30.1653 89.948 29.664 89.564 29.312C89.1907 28.9493 88.6253 28.768 87.868 28.768C87.3667 28.768 86.876 28.8533 86.396 29.024C85.916 29.184 85.5107 29.4027 85.18 29.68L84.54 28.528C84.9773 28.176 85.5 27.9093 86.108 27.728C86.7267 27.536 87.372 27.44 88.044 27.44C89.2067 27.44 90.1027 27.7227 90.732 28.288C91.3613 28.8533 91.676 29.7173 91.676 30.88V36H90.22ZM87.436 36.096C86.8067 36.096 86.252 35.9893 85.772 35.776C85.3027 35.5627 84.94 35.2693 84.684 34.896C84.428 34.512 84.3 34.08 84.3 33.6C84.3 33.1413 84.4067 32.7253 84.62 32.352C84.844 31.9787 85.2013 31.68 85.692 31.456C86.1933 31.232 86.8653 31.12 87.708 31.12H90.396V32.224H87.772C87.004 32.224 86.4867 32.352 86.22 32.608C85.9533 32.864 85.82 33.1733 85.82 33.536C85.82 33.952 85.9853 34.288 86.316 34.544C86.6467 34.7893 87.1053 34.912 87.692 34.912C88.268 34.912 88.7693 34.784 89.196 34.528C89.6333 34.272 89.948 33.8987 90.14 33.408L90.444 34.464C90.2413 34.9653 89.884 35.3653 89.372 35.664C88.86 35.952 88.2147 36.096 87.436 36.096ZM94.5185 36V27.52H95.9905V29.824L95.8465 29.248C96.0812 28.6613 96.4758 28.2133 97.0305 27.904C97.5852 27.5947 98.2678 27.44 99.0785 27.44V28.928C99.0145 28.9173 98.9505 28.912 98.8865 28.912C98.8332 28.912 98.7798 28.912 98.7265 28.912C97.9052 28.912 97.2545 29.1573 96.7745 29.648C96.2945 30.1387 96.0545 30.848 96.0545 31.776V36H94.5185ZM104.59 36.096C103.726 36.096 102.952 35.9093 102.27 35.536C101.598 35.1627 101.07 34.6507 100.686 34C100.302 33.3493 100.11 32.6027 100.11 31.76C100.11 30.9173 100.302 30.1707 100.686 29.52C101.07 28.8693 101.598 28.3627 102.27 28C102.952 27.6267 103.726 27.44 104.59 27.44C105.358 27.44 106.04 27.5947 106.638 27.904C107.246 28.2027 107.715 28.6507 108.046 29.248L106.878 30C106.6 29.584 106.259 29.28 105.854 29.088C105.459 28.8853 105.032 28.784 104.574 28.784C104.019 28.784 103.523 28.9067 103.086 29.152C102.648 29.3973 102.302 29.744 102.046 30.192C101.79 30.6293 101.662 31.152 101.662 31.76C101.662 32.368 101.79 32.896 102.046 33.344C102.302 33.792 102.648 34.1387 103.086 34.384C103.523 34.6293 104.019 34.752 104.574 34.752C105.032 34.752 105.459 34.656 105.854 34.464C106.259 34.2613 106.6 33.952 106.878 33.536L108.046 34.272C107.715 34.8587 107.246 35.312 106.638 35.632C106.04 35.9413 105.358 36.096 104.59 36.096ZM114.453 27.44C115.146 27.44 115.754 27.5733 116.277 27.84C116.81 28.1067 117.226 28.512 117.525 29.056C117.823 29.6 117.973 30.288 117.973 31.12V36H116.437V31.296C116.437 30.4747 116.234 29.856 115.829 29.44C115.434 29.024 114.874 28.816 114.149 28.816C113.605 28.816 113.13 28.9227 112.725 29.136C112.319 29.3493 112.005 29.664 111.781 30.08C111.567 30.496 111.461 31.0133 111.461 31.632V36H109.925V24.128H111.461V29.808L111.157 29.2C111.434 28.6453 111.861 28.2133 112.437 27.904C113.013 27.5947 113.685 27.44 114.453 27.44Z" fill="white"/>
</svg>
