<svg width="201" height="272" viewBox="0 0 201 272" fill="none" xmlns="http://www.w3.org/2000/svg">
<g filter="url(#filter0_d_206_91)">
<g filter="url(#filter1_d_206_91)">
<rect x="17" y="9" width="60" height="60" rx="10" fill="white"/>
</g>
<path d="M51.96 33.17C53.96 34.56 55.34 36.77 55.62 39.32" stroke="#FF7B29" stroke-width="1.5" stroke-linecap="round" stroke-linejoin="round"/>
<path d="M38.49 39.37C38.75 36.83 40.11 34.62 42.09 33.22" stroke="#FF7B29" stroke-width="1.5" stroke-linecap="round" stroke-linejoin="round"/>
<path d="M43.19 47.94C44.35 48.53 45.67 48.86 47.06 48.86C48.4 48.86 49.66 48.56 50.79 48.01" stroke="#FF7B29" stroke-width="1.5" stroke-linecap="round" stroke-linejoin="round"/>
<path d="M47.06 34.7C48.5954 34.7 49.84 33.4554 49.84 31.92C49.84 30.3846 48.5954 29.14 47.06 29.14C45.5246 29.14 44.28 30.3846 44.28 31.92C44.28 33.4554 45.5246 34.7 47.06 34.7Z" stroke="#FF7B29" stroke-width="1.5" stroke-linecap="round" stroke-linejoin="round"/>
<path d="M39.83 46.92C41.3654 46.92 42.61 45.6754 42.61 44.14C42.61 42.6046 41.3654 41.36 39.83 41.36C38.2947 41.36 37.05 42.6046 37.05 44.14C37.05 45.6754 38.2947 46.92 39.83 46.92Z" stroke="#FF7B29" stroke-width="1.5" stroke-linecap="round" stroke-linejoin="round"/>
<path d="M54.17 46.92C55.7054 46.92 56.95 45.6754 56.95 44.14C56.95 42.6046 55.7054 41.36 54.17 41.36C52.6346 41.36 51.39 42.6046 51.39 44.14C51.39 45.6754 52.6346 46.92 54.17 46.92Z" stroke="#FF7B29" stroke-width="1.5" stroke-linecap="round" stroke-linejoin="round"/>
</g>
<path d="M91.252 9.8V14.48H96.292V35H102.124V9.8H91.252ZM118.274 20.06L123.962 13.58V9.8H106.322V14.48H117.05L111.866 20.348V24.2H114.53C117.842 24.2 119.246 25.388 119.246 27.296C119.246 29.348 117.446 30.536 114.53 30.536C111.902 30.536 109.238 29.708 107.33 28.268L105.062 32.732C107.51 34.46 111.146 35.432 114.674 35.432C121.838 35.432 125.114 31.544 125.114 27.296C125.114 23.588 122.81 20.78 118.274 20.06ZM135.623 30.248L141.419 24.776C144.947 21.5 145.631 19.268 145.631 16.82C145.631 12.248 141.887 9.368 136.271 9.368C131.735 9.368 128.207 11.204 126.263 14.048L130.511 16.784C131.735 15.092 133.571 14.264 135.731 14.264C138.395 14.264 139.763 15.416 139.763 17.396C139.763 18.62 139.367 19.916 137.135 22.04L127.415 31.22V35H146.459V30.248H135.623ZM156.857 30.248L162.653 24.776C166.181 21.5 166.865 19.268 166.865 16.82C166.865 12.248 163.121 9.368 157.505 9.368C152.969 9.368 149.441 11.204 147.497 14.048L151.745 16.784C152.969 15.092 154.805 14.264 156.965 14.264C159.629 14.264 160.997 15.416 160.997 17.396C160.997 18.62 160.601 19.916 158.369 22.04L148.649 31.22V35H167.693V30.248H156.857Z" fill="black"/>
<path d="M96.968 61.128V65H95.384V61.096L90.936 53.8H92.648L96.232 59.704L99.832 53.8H101.416L96.968 61.128ZM109.526 60.808C109.526 60.9253 109.516 61.08 109.494 61.272H102.614C102.71 62.0187 103.036 62.6213 103.59 63.08C104.156 63.528 104.854 63.752 105.686 63.752C106.7 63.752 107.516 63.4107 108.134 62.728L108.982 63.72C108.598 64.168 108.118 64.5093 107.542 64.744C106.977 64.9787 106.342 65.096 105.638 65.096C104.742 65.096 103.948 64.9147 103.254 64.552C102.561 64.1787 102.022 63.6613 101.638 63C101.265 62.3387 101.078 61.592 101.078 60.76C101.078 59.9387 101.26 59.1973 101.622 58.536C101.996 57.8747 102.502 57.3627 103.142 57C103.793 56.6267 104.524 56.44 105.334 56.44C106.145 56.44 106.865 56.6267 107.494 57C108.134 57.3627 108.63 57.8747 108.982 58.536C109.345 59.1973 109.526 59.9547 109.526 60.808ZM105.334 57.736C104.598 57.736 103.98 57.96 103.478 58.408C102.988 58.856 102.7 59.4427 102.614 60.168H108.054C107.969 59.4533 107.676 58.872 107.174 58.424C106.684 57.9653 106.07 57.736 105.334 57.736ZM114.513 56.44C115.686 56.44 116.582 56.728 117.201 57.304C117.83 57.88 118.145 58.7387 118.145 59.88V65H116.689V63.88C116.433 64.2747 116.065 64.5787 115.585 64.792C115.115 64.9947 114.555 65.096 113.905 65.096C112.955 65.096 112.193 64.8667 111.617 64.408C111.051 63.9493 110.769 63.3467 110.769 62.6C110.769 61.8533 111.041 61.256 111.585 60.808C112.129 60.3493 112.993 60.12 114.177 60.12H116.609V59.816C116.609 59.1547 116.417 58.648 116.033 58.296C115.649 57.944 115.083 57.768 114.337 57.768C113.835 57.768 113.345 57.8533 112.865 58.024C112.385 58.184 111.979 58.4027 111.649 58.68L111.009 57.528C111.446 57.176 111.969 56.9093 112.577 56.728C113.185 56.536 113.83 56.44 114.513 56.44ZM114.161 63.912C114.747 63.912 115.254 63.784 115.681 63.528C116.107 63.2613 116.417 62.888 116.609 62.408V61.224H114.241C112.939 61.224 112.289 61.6613 112.289 62.536C112.289 62.9627 112.454 63.2987 112.785 63.544C113.115 63.7893 113.574 63.912 114.161 63.912ZM122.459 57.944C122.726 57.4533 123.121 57.08 123.643 56.824C124.166 56.568 124.801 56.44 125.547 56.44V57.928C125.462 57.9173 125.345 57.912 125.195 57.912C124.363 57.912 123.707 58.1627 123.227 58.664C122.758 59.1547 122.523 59.8587 122.523 60.776V65H120.987V56.52H122.459V57.944Z" fill="#949494"/>
<g filter="url(#filter2_d_206_91)">
<rect x="17" y="93" width="60" height="60" rx="10" fill="white"/>
</g>
<path d="M47.15 127.5V129.6" stroke="#FF7B29" stroke-width="1.5" stroke-linecap="round" stroke-linejoin="round"/>
<path d="M42.15 133H52.15V132C52.15 130.9 51.25 130 50.15 130H44.15C43.05 130 42.15 130.9 42.15 132V133V133Z" stroke="#FF7B29" stroke-width="1.5" stroke-miterlimit="10"/>
<path d="M41.15 133H53.15" stroke="#FF7B29" stroke-width="1.5" stroke-linecap="round" stroke-linejoin="round"/>
<path d="M47 127C43.13 127 40 123.87 40 120V117C40 114.79 41.79 113 44 113H50C52.21 113 54 114.79 54 117V120C54 123.87 50.87 127 47 127Z" stroke="#FF7B29" stroke-width="1.5" stroke-linecap="round" stroke-linejoin="round"/>
<path d="M40.47 122.65C39.72 122.41 39.06 121.97 38.54 121.45C37.64 120.45 37.04 119.25 37.04 117.85C37.04 116.45 38.14 115.35 39.54 115.35H40.19C39.99 115.81 39.89 116.32 39.89 116.85V119.85C39.89 120.85 40.1 121.79 40.47 122.65Z" stroke="#FF7B29" stroke-width="1.5" stroke-linecap="round" stroke-linejoin="round"/>
<path d="M53.53 122.65C54.28 122.41 54.94 121.97 55.46 121.45C56.36 120.45 56.96 119.25 56.96 117.85C56.96 116.45 55.86 115.35 54.46 115.35H53.81C54.01 115.81 54.11 116.32 54.11 116.85V119.85C54.11 120.85 53.9 121.79 53.53 122.65Z" stroke="#FF7B29" stroke-width="1.5" stroke-linecap="round" stroke-linejoin="round"/>
<path d="M100.396 116.248L106.192 110.776C109.72 107.5 110.404 105.268 110.404 102.82C110.404 98.248 106.66 95.368 101.044 95.368C96.508 95.368 92.98 97.204 91.036 100.048L95.284 102.784C96.508 101.092 98.344 100.264 100.504 100.264C103.168 100.264 104.536 101.416 104.536 103.396C104.536 104.62 104.14 105.916 101.908 108.04L92.188 117.22V121H111.232V116.248H100.396ZM122.494 95.368C117.166 95.368 112.954 98.608 112.954 103.756C112.954 108.508 116.77 111.604 121.63 111.604C124.258 111.604 126.418 110.812 127.894 109.336C127.714 114.196 124.978 116.68 120.802 116.68C119.074 116.68 117.454 116.356 116.086 115.42L113.926 119.704C115.69 120.82 118.246 121.432 120.91 121.432C128.542 121.432 133.762 116.572 133.762 107.86C133.762 99.724 129.478 95.368 122.494 95.368ZM122.926 107.248C120.334 107.248 118.642 105.772 118.642 103.468C118.642 101.164 120.37 99.724 122.854 99.724C125.626 99.724 127.246 101.308 127.246 103.468C127.246 105.664 125.482 107.248 122.926 107.248Z" fill="black"/>
<path d="M100.216 145.192C101.096 144.76 101.72 143.912 101.72 142.696C101.72 140.888 100.28 139.8 97.704 139.8H92.68V151H98.024C100.856 151 102.312 149.896 102.312 147.976C102.312 146.488 101.48 145.544 100.216 145.192ZM97.56 141.096C99.192 141.096 100.12 141.704 100.12 142.888C100.12 144.072 99.192 144.68 97.56 144.68H94.28V141.096H97.56ZM97.96 149.704H94.28V145.976H97.96C99.736 145.976 100.696 146.552 100.696 147.848C100.696 149.144 99.736 149.704 97.96 149.704ZM105.333 140.888C105.941 140.888 106.373 140.44 106.373 139.864C106.373 139.32 105.925 138.888 105.333 138.888C104.741 138.888 104.293 139.336 104.293 139.896C104.293 140.456 104.741 140.888 105.333 140.888ZM104.565 151H106.101V142.52H104.565V151ZM115.498 139.128V143.8C114.794 142.888 113.738 142.44 112.538 142.44C110.058 142.44 108.25 144.168 108.25 146.76C108.25 149.352 110.058 151.096 112.538 151.096C113.786 151.096 114.874 150.616 115.562 149.656V151H117.034V139.128H115.498ZM112.666 149.752C111.034 149.752 109.802 148.568 109.802 146.76C109.802 144.952 111.034 143.784 112.666 143.784C114.282 143.784 115.514 144.952 115.514 146.76C115.514 148.568 114.282 149.752 112.666 149.752ZM122.372 151.096C124.628 151.096 126.036 150.12 126.036 148.584C126.036 145.288 120.66 146.92 120.66 144.92C120.66 144.248 121.316 143.752 122.66 143.752C123.492 143.752 124.34 143.928 125.108 144.424L125.764 143.208C125.028 142.728 123.78 142.44 122.676 142.44C120.5 142.44 119.14 143.464 119.14 144.984C119.14 148.36 124.5 146.712 124.5 148.616C124.5 149.336 123.908 149.768 122.484 149.768C121.38 149.768 120.228 149.4 119.508 148.888L118.868 150.104C119.572 150.664 120.964 151.096 122.372 151.096ZM134.685 151.096C136.941 151.096 138.349 150.12 138.349 148.584C138.349 145.288 132.973 146.92 132.973 144.92C132.973 144.248 133.629 143.752 134.973 143.752C135.805 143.752 136.653 143.928 137.421 144.424L138.077 143.208C137.341 142.728 136.093 142.44 134.989 142.44C132.813 142.44 131.453 143.464 131.453 144.984C131.453 148.36 136.813 146.712 136.813 148.616C136.813 149.336 136.221 149.768 134.797 149.768C133.693 149.768 132.541 149.4 131.821 148.888L131.181 150.104C131.885 150.664 133.277 151.096 134.685 151.096ZM143.901 151.096C146.445 151.096 148.301 149.288 148.301 146.76C148.301 144.232 146.445 142.44 143.901 142.44C141.357 142.44 139.485 144.232 139.485 146.76C139.485 149.288 141.357 151.096 143.901 151.096ZM143.901 149.752C142.269 149.752 141.037 148.568 141.037 146.76C141.037 144.952 142.269 143.784 143.901 143.784C145.533 143.784 146.749 144.952 146.749 146.76C146.749 148.568 145.533 149.752 143.901 149.752ZM157.826 140.296C158.274 140.296 158.69 140.456 159.01 140.696L159.474 139.528C159.042 139.192 158.402 139.032 157.746 139.032C155.938 139.032 154.946 140.12 154.946 141.768V142.52H153.506V143.784H154.946V151H156.482V143.784H158.914V142.52H156.45V141.784C156.45 140.808 156.914 140.296 157.826 140.296ZM163.294 142.44C161.934 142.44 160.67 142.824 159.79 143.528L160.43 144.68C161.086 144.12 162.11 143.768 163.118 143.768C164.638 143.768 165.39 144.52 165.39 145.816V146.12H162.958C160.43 146.12 159.55 147.24 159.55 148.6C159.55 150.072 160.766 151.096 162.686 151.096C164.014 151.096 164.958 150.648 165.47 149.88V151H166.926V145.88C166.926 143.56 165.614 142.44 163.294 142.44ZM162.942 149.912C161.774 149.912 161.07 149.384 161.07 148.536C161.07 147.816 161.502 147.224 163.022 147.224H165.39V148.408C165.006 149.384 164.094 149.912 162.942 149.912ZM171.241 143.944V142.52H169.769V151H171.305V146.776C171.305 144.92 172.329 143.912 173.977 143.912C174.089 143.912 174.201 143.912 174.329 143.928V142.44C172.841 142.44 171.785 142.952 171.241 143.944ZM176.543 151.096C177.119 151.096 177.599 150.632 177.599 149.992C177.599 149.352 177.119 148.904 176.543 148.904C175.951 148.904 175.455 149.352 175.455 149.992C175.455 150.632 175.951 151.096 176.543 151.096Z" fill="#949494"/>
<g filter="url(#filter3_d_206_91)">
<rect x="17" y="177" width="60" height="60" rx="10" fill="white"/>
</g>
<path d="M47.5 217H39.08C37.92 217 36.97 216.07 36.97 214.93V200.09C36.97 197.47 38.92 196.28 41.31 197.45L45.75 199.63C46.71 200.1 47.5 201.35 47.5 202.41V217Z" stroke="#FF7B29" stroke-width="1.5" stroke-linecap="round" stroke-linejoin="round"/>
<path d="M56.97 210.06V213.84C56.97 216 55.97 217 53.81 217H47.5V205.42L47.97 205.52L52.47 206.53L54.5 206.98C55.82 207.27 56.9 207.95 56.96 209.87C56.97 209.93 56.97 209.99 56.97 210.06Z" stroke="#FF7B29" stroke-width="1.5" stroke-linecap="round" stroke-linejoin="round"/>
<path d="M40.5 204H43.97" stroke="#FF7B29" stroke-width="1.5" stroke-linecap="round" stroke-linejoin="round"/>
<path d="M40.5 208H43.97" stroke="#FF7B29" stroke-width="1.5" stroke-linecap="round" stroke-linejoin="round"/>
<path d="M52.47 206.53V209.75C52.47 210.99 51.46 212 50.22 212C48.98 212 47.97 210.99 47.97 209.75V205.52L52.47 206.53Z" stroke="#FF7B29" stroke-width="1.5" stroke-linecap="round" stroke-linejoin="round"/>
<path d="M56.96 209.87C56.9 211.05 55.92 212 54.72 212C53.48 212 52.47 210.99 52.47 209.75V206.53L54.5 206.98C55.82 207.27 56.9 207.95 56.96 209.87Z" stroke="#FF7B29" stroke-width="1.5" stroke-linecap="round" stroke-linejoin="round"/>
<path d="M106.048 203.432C110.44 203.432 114.076 201.848 116.452 198.932L112.708 195.476C111.016 197.456 108.892 198.464 106.372 198.464C101.656 198.464 98.308 195.152 98.308 190.4C98.308 185.648 101.656 182.336 106.372 182.336C108.892 182.336 111.016 183.344 112.708 185.288L116.452 181.832C114.076 178.952 110.44 177.368 106.084 177.368C98.236 177.368 92.404 182.804 92.404 190.4C92.404 197.996 98.236 203.432 106.048 203.432ZM131.766 183.344C129.282 183.344 127.122 184.136 125.61 185.648V176.288H119.994V203H125.61V193.424C125.61 189.86 127.554 188.204 130.254 188.204C132.738 188.204 134.178 189.644 134.178 192.776V203H139.794V191.912C139.794 186.008 136.338 183.344 131.766 183.344ZM147.693 180.932C149.781 180.932 151.185 179.564 151.185 177.692C151.185 175.964 149.781 174.668 147.693 174.668C145.605 174.668 144.201 176.036 144.201 177.8C144.201 179.564 145.605 180.932 147.693 180.932ZM144.885 203H150.501V183.632H144.885V203ZM167.485 183.344C164.857 183.344 162.589 184.244 161.077 185.9V183.632H155.713V203H161.329V193.424C161.329 189.86 163.273 188.204 165.973 188.204C168.457 188.204 169.897 189.644 169.897 192.776V203H175.513V191.912C175.513 186.008 172.057 183.344 167.485 183.344ZM188.416 183.344C185.32 183.344 182.188 184.172 180.064 185.684L182.08 189.608C183.484 188.492 185.608 187.808 187.66 187.808C190.684 187.808 192.124 189.212 192.124 191.624H187.66C181.756 191.624 179.344 194 179.344 197.42C179.344 200.768 182.044 203.288 186.58 203.288C189.424 203.288 191.44 202.352 192.484 200.588V203H197.74V191.948C197.74 186.08 194.32 183.344 188.416 183.344ZM187.984 199.508C186.004 199.508 184.816 198.572 184.816 197.168C184.816 195.872 185.644 194.9 188.272 194.9H192.124V196.88C191.476 198.644 189.856 199.508 187.984 199.508Z" fill="black"/>
<path d="M96.088 233.096C98.632 233.096 100.488 231.288 100.488 228.76C100.488 226.232 98.632 224.44 96.088 224.44C93.544 224.44 91.672 226.232 91.672 228.76C91.672 231.288 93.544 233.096 96.088 233.096ZM96.088 231.752C94.456 231.752 93.224 230.568 93.224 228.76C93.224 226.952 94.456 225.784 96.088 225.784C97.72 225.784 98.936 226.952 98.936 228.76C98.936 230.568 97.72 231.752 96.088 231.752ZM104.084 225.944V224.52H102.612V233H104.148V228.776C104.148 226.92 105.172 225.912 106.82 225.912C106.932 225.912 107.044 225.912 107.172 225.928V224.44C105.684 224.44 104.628 224.952 104.084 225.944ZM109.833 222.888C110.441 222.888 110.873 222.44 110.873 221.864C110.873 221.32 110.425 220.888 109.833 220.888C109.241 220.888 108.793 221.336 108.793 221.896C108.793 222.456 109.241 222.888 109.833 222.888ZM109.065 233H110.601V224.52H109.065V233ZM120.19 224.52V225.832C119.47 224.904 118.318 224.44 117.054 224.44C114.606 224.44 112.75 226.088 112.75 228.536C112.75 230.984 114.606 232.648 117.054 232.648C118.27 232.648 119.374 232.216 120.11 231.336V232.008C120.11 233.928 119.198 234.856 117.198 234.856C115.95 234.856 114.718 234.424 113.934 233.752L113.198 234.936C114.126 235.768 115.694 236.2 117.246 236.2C120.126 236.2 121.646 234.84 121.646 231.848V224.52H120.19ZM117.23 231.304C115.518 231.304 114.302 230.168 114.302 228.536C114.302 226.888 115.518 225.784 117.23 225.784C118.926 225.784 120.142 226.888 120.142 228.536C120.142 230.168 118.926 231.304 117.23 231.304ZM125.349 222.888C125.957 222.888 126.389 222.44 126.389 221.864C126.389 221.32 125.941 220.888 125.349 220.888C124.757 220.888 124.309 221.336 124.309 221.896C124.309 222.456 124.757 222.888 125.349 222.888ZM124.581 233H126.117V224.52H124.581V233ZM133.578 224.44C132.234 224.44 131.146 224.936 130.522 225.8V224.52H129.05V233H130.586V228.632C130.586 226.792 131.642 225.816 133.274 225.816C134.73 225.816 135.562 226.632 135.562 228.296V233H137.098V228.12C137.098 225.624 135.642 224.44 133.578 224.44Z" fill="#949494"/>
<defs>
<filter id="filter0_d_206_91" x="13" y="9" width="68" height="68" filterUnits="userSpaceOnUse" color-interpolation-filters="sRGB">
<feFlood flood-opacity="0" result="BackgroundImageFix"/>
<feColorMatrix in="SourceAlpha" type="matrix" values="0 0 0 0 0 0 0 0 0 0 0 0 0 0 0 0 0 0 127 0" result="hardAlpha"/>
<feOffset dy="4"/>
<feGaussianBlur stdDeviation="2"/>
<feComposite in2="hardAlpha" operator="out"/>
<feColorMatrix type="matrix" values="0 0 0 0 0 0 0 0 0 0 0 0 0 0 0 0 0 0 0.25 0"/>
<feBlend mode="normal" in2="BackgroundImageFix" result="effect1_dropShadow_206_91"/>
<feBlend mode="normal" in="SourceGraphic" in2="effect1_dropShadow_206_91" result="shape"/>
</filter>
<filter id="filter1_d_206_91" x="0" y="9" width="94" height="95" filterUnits="userSpaceOnUse" color-interpolation-filters="sRGB">
<feFlood flood-opacity="0" result="BackgroundImageFix"/>
<feColorMatrix in="SourceAlpha" type="matrix" values="0 0 0 0 0 0 0 0 0 0 0 0 0 0 0 0 0 0 127 0" result="hardAlpha"/>
<feOffset dy="18"/>
<feGaussianBlur stdDeviation="8.5"/>
<feComposite in2="hardAlpha" operator="out"/>
<feColorMatrix type="matrix" values="0 0 0 0 1 0 0 0 0 0.482353 0 0 0 0 0.160784 0 0 0 0.1 0"/>
<feBlend mode="normal" in2="BackgroundImageFix" result="effect1_dropShadow_206_91"/>
<feBlend mode="normal" in="SourceGraphic" in2="effect1_dropShadow_206_91" result="shape"/>
</filter>
<filter id="filter2_d_206_91" x="0" y="93" width="94" height="95" filterUnits="userSpaceOnUse" color-interpolation-filters="sRGB">
<feFlood flood-opacity="0" result="BackgroundImageFix"/>
<feColorMatrix in="SourceAlpha" type="matrix" values="0 0 0 0 0 0 0 0 0 0 0 0 0 0 0 0 0 0 127 0" result="hardAlpha"/>
<feOffset dy="18"/>
<feGaussianBlur stdDeviation="8.5"/>
<feComposite in2="hardAlpha" operator="out"/>
<feColorMatrix type="matrix" values="0 0 0 0 1 0 0 0 0 0.482353 0 0 0 0 0.160784 0 0 0 0.1 0"/>
<feBlend mode="normal" in2="BackgroundImageFix" result="effect1_dropShadow_206_91"/>
<feBlend mode="normal" in="SourceGraphic" in2="effect1_dropShadow_206_91" result="shape"/>
</filter>
<filter id="filter3_d_206_91" x="0" y="177" width="94" height="95" filterUnits="userSpaceOnUse" color-interpolation-filters="sRGB">
<feFlood flood-opacity="0" result="BackgroundImageFix"/>
<feColorMatrix in="SourceAlpha" type="matrix" values="0 0 0 0 0 0 0 0 0 0 0 0 0 0 0 0 0 0 127 0" result="hardAlpha"/>
<feOffset dy="18"/>
<feGaussianBlur stdDeviation="8.5"/>
<feComposite in2="hardAlpha" operator="out"/>
<feColorMatrix type="matrix" values="0 0 0 0 1 0 0 0 0 0.482353 0 0 0 0 0.160784 0 0 0 0.1 0"/>
<feBlend mode="normal" in2="BackgroundImageFix" result="effect1_dropShadow_206_91"/>
<feBlend mode="normal" in="SourceGraphic" in2="effect1_dropShadow_206_91" result="shape"/>
</filter>
</defs>
</svg>
