<svg width="120" height="37" viewBox="0 0 120 37" fill="none" xmlns="http://www.w3.org/2000/svg">
<rect x="0.5" y="0.5" width="119" height="36" rx="9.5" stroke="#00B2FF"/>
<path d="M25.982 14.2L21.684 24H20.298L15.986 14.2H17.498L21.026 22.25L24.582 14.2H25.982ZM27.0494 16.58H28.3934V24H27.0494V16.58ZM27.7214 15.152C27.4601 15.152 27.2407 15.068 27.0634 14.9C26.8954 14.732 26.8114 14.5267 26.8114 14.284C26.8114 14.0413 26.8954 13.836 27.0634 13.668C27.2407 13.4907 27.4601 13.402 27.7214 13.402C27.9827 13.402 28.1974 13.486 28.3654 13.654C28.5427 13.8127 28.6314 14.0133 28.6314 14.256C28.6314 14.508 28.5427 14.7227 28.3654 14.9C28.1974 15.068 27.9827 15.152 27.7214 15.152ZM37.6655 20.332C37.6655 20.4347 37.6562 20.57 37.6375 20.738H31.6175C31.7015 21.3913 31.9862 21.9187 32.4715 22.32C32.9662 22.712 33.5775 22.908 34.3055 22.908C35.1922 22.908 35.9062 22.6093 36.4475 22.012L37.1895 22.88C36.8535 23.272 36.4335 23.5707 35.9295 23.776C35.4349 23.9813 34.8795 24.084 34.2635 24.084C33.4795 24.084 32.7842 23.9253 32.1775 23.608C31.5709 23.2813 31.0995 22.8287 30.7635 22.25C30.4369 21.6713 30.2735 21.018 30.2735 20.29C30.2735 19.5713 30.4322 18.9227 30.7495 18.344C31.0762 17.7653 31.5195 17.3173 32.0795 17C32.6489 16.6733 33.2882 16.51 33.9975 16.51C34.7069 16.51 35.3369 16.6733 35.8875 17C36.4475 17.3173 36.8815 17.7653 37.1895 18.344C37.5069 18.9227 37.6655 19.5853 37.6655 20.332ZM33.9975 17.644C33.3535 17.644 32.8122 17.84 32.3735 18.232C31.9442 18.624 31.6922 19.1373 31.6175 19.772H36.3775C36.3029 19.1467 36.0462 18.638 35.6075 18.246C35.1782 17.8447 34.6415 17.644 33.9975 17.644ZM50.6231 16.58L47.8511 24H46.5631L44.4211 18.372L42.2511 24H40.9631L38.2051 16.58H39.4791L41.6351 22.488L43.8751 16.58H45.0091L47.2071 22.516L49.4191 16.58H50.6231ZM55.9427 14.2H60.0727C61.1087 14.2 62.028 14.4053 62.8307 14.816C63.6333 15.2267 64.254 15.8053 64.6927 16.552C65.1407 17.2893 65.3647 18.1387 65.3647 19.1C65.3647 20.0613 65.1407 20.9153 64.6927 21.662C64.254 22.3993 63.6333 22.9733 62.8307 23.384C62.028 23.7947 61.1087 24 60.0727 24H55.9427V14.2ZM59.9887 22.782C60.782 22.782 61.4773 22.628 62.0747 22.32C62.6813 22.012 63.148 21.5827 63.4747 21.032C63.8013 20.472 63.9647 19.828 63.9647 19.1C63.9647 18.372 63.8013 17.7327 63.4747 17.182C63.148 16.622 62.6813 16.188 62.0747 15.88C61.4773 15.572 60.782 15.418 59.9887 15.418H57.3427V22.782H59.9887ZM74.0191 20.332C74.0191 20.4347 74.0097 20.57 73.9911 20.738H67.9711C68.0551 21.3913 68.3397 21.9187 68.8251 22.32C69.3197 22.712 69.9311 22.908 70.6591 22.908C71.5457 22.908 72.2597 22.6093 72.8011 22.012L73.5431 22.88C73.2071 23.272 72.7871 23.5707 72.2831 23.776C71.7884 23.9813 71.2331 24.084 70.6171 24.084C69.8331 24.084 69.1377 23.9253 68.5311 23.608C67.9244 23.2813 67.4531 22.8287 67.1171 22.25C66.7904 21.6713 66.6271 21.018 66.6271 20.29C66.6271 19.5713 66.7857 18.9227 67.1031 18.344C67.4297 17.7653 67.8731 17.3173 68.4331 17C69.0024 16.6733 69.6417 16.51 70.3511 16.51C71.0604 16.51 71.6904 16.6733 72.2411 17C72.8011 17.3173 73.2351 17.7653 73.5431 18.344C73.8604 18.9227 74.0191 19.5853 74.0191 20.332ZM70.3511 17.644C69.7071 17.644 69.1657 17.84 68.7271 18.232C68.2977 18.624 68.0457 19.1373 67.9711 19.772H72.7311C72.6564 19.1467 72.3997 18.638 71.9611 18.246C71.5317 17.8447 70.9951 17.644 70.3511 17.644ZM80.0573 23.566C79.8613 23.734 79.6187 23.8647 79.3293 23.958C79.04 24.042 78.7413 24.084 78.4333 24.084C77.6867 24.084 77.108 23.8833 76.6973 23.482C76.2867 23.0807 76.0813 22.5067 76.0813 21.76V17.686H74.8213V16.58H76.0813V14.956H77.4253V16.58H79.5533V17.686H77.4253V21.704C77.4253 22.1053 77.5233 22.4133 77.7193 22.628C77.9247 22.8427 78.214 22.95 78.5873 22.95C78.998 22.95 79.348 22.8333 79.6373 22.6L80.0573 23.566ZM84.3842 16.51C85.4109 16.51 86.1949 16.762 86.7362 17.266C87.2869 17.77 87.5622 18.5213 87.5622 19.52V24H86.2882V23.02C86.0642 23.3653 85.7422 23.6313 85.3222 23.818C84.9115 23.9953 84.4215 24.084 83.8522 24.084C83.0215 24.084 82.3542 23.8833 81.8502 23.482C81.3555 23.0807 81.1082 22.5533 81.1082 21.9C81.1082 21.2467 81.3462 20.724 81.8222 20.332C82.2982 19.9307 83.0542 19.73 84.0902 19.73H86.2182V19.464C86.2182 18.8853 86.0502 18.442 85.7142 18.134C85.3782 17.826 84.8835 17.672 84.2302 17.672C83.7915 17.672 83.3622 17.7467 82.9422 17.896C82.5222 18.036 82.1675 18.2273 81.8782 18.47L81.3182 17.462C81.7009 17.154 82.1582 16.9207 82.6902 16.762C83.2222 16.594 83.7869 16.51 84.3842 16.51ZM84.0762 23.048C84.5895 23.048 85.0329 22.936 85.4062 22.712C85.7795 22.4787 86.0502 22.152 86.2182 21.732V20.696H84.1462C83.0075 20.696 82.4382 21.0787 82.4382 21.844C82.4382 22.2173 82.5829 22.5113 82.8722 22.726C83.1615 22.9407 83.5629 23.048 84.0762 23.048ZM90.0494 16.58H91.3934V24H90.0494V16.58ZM90.7214 15.152C90.4601 15.152 90.2407 15.068 90.0634 14.9C89.8954 14.732 89.8114 14.5267 89.8114 14.284C89.8114 14.0413 89.8954 13.836 90.0634 13.668C90.2407 13.4907 90.4601 13.402 90.7214 13.402C90.9827 13.402 91.1974 13.486 91.3654 13.654C91.5427 13.8127 91.6314 14.0133 91.6314 14.256C91.6314 14.508 91.5427 14.7227 91.3654 14.9C91.1974 15.068 90.9827 15.152 90.7214 15.152ZM93.9595 13.612H95.3035V24H93.9595V13.612ZM99.9977 24.084C99.391 24.084 98.8077 24.0047 98.2477 23.846C97.6877 23.678 97.249 23.468 96.9317 23.216L97.4917 22.152C97.8184 22.3853 98.215 22.572 98.6817 22.712C99.1484 22.852 99.6197 22.922 100.096 22.922C101.272 22.922 101.86 22.586 101.86 21.914C101.86 21.69 101.78 21.5127 101.622 21.382C101.463 21.2513 101.262 21.158 101.02 21.102C100.786 21.0367 100.45 20.9667 100.012 20.892C99.4144 20.7987 98.9244 20.6913 98.5417 20.57C98.1684 20.4487 97.8464 20.2433 97.5757 19.954C97.305 19.6647 97.1697 19.2587 97.1697 18.736C97.1697 18.064 97.4497 17.5273 98.0097 17.126C98.5697 16.7153 99.321 16.51 100.264 16.51C100.758 16.51 101.253 16.5707 101.748 16.692C102.242 16.8133 102.648 16.9767 102.966 17.182L102.392 18.246C101.785 17.854 101.071 17.658 100.25 17.658C99.6804 17.658 99.2464 17.7513 98.9477 17.938C98.649 18.1247 98.4997 18.372 98.4997 18.68C98.4997 18.9227 98.5837 19.114 98.7517 19.254C98.9197 19.394 99.125 19.4967 99.3677 19.562C99.6197 19.6273 99.9697 19.702 100.418 19.786C101.015 19.8887 101.496 20.0007 101.86 20.122C102.233 20.234 102.55 20.43 102.812 20.71C103.073 20.99 103.204 21.382 103.204 21.886C103.204 22.558 102.914 23.0947 102.336 23.496C101.766 23.888 100.987 24.084 99.9977 24.084Z" fill="#00B2FF"/>
</svg>
